# xmcd CD database file
#
# Track frame offsets:
#	150
#	18320
#	37575
#	64212
#	83505
#	105487
#	120712
#	139250
#	157522
#	177567
#	193250
#	211897
#	227672
#
# Disc length: 3309 seconds
#
# Revision: 0
# Processed by: cddbd v1.5PL3 Copyright (c) Steve Scherf et al.
# Submitted via: CDex 1.51
#
DISCID=9f0ceb0d
DTITLE=The Wilsons - Monday Without You
DYEAR=1997
DGENRE=Pop
TTITLE0=Monday Without You
TTITLE1=Good About You
TTITLE2=Miracle
TTITLE3=Goddess' Revival
TTITLE4=Candy
TTITLE5='Til I Die
TTITLE6=St.Joan
TTITLE7=Open Door
TTITLE8=I Hate Your Face
TTITLE9=Everything
TTITLE10=Not Your Average Girl
TTITLE11=Everything I Need
TTITLE12=Pretty Poison
EXTD=YEAR: 1997
EXTT0=
EXTT1=
EXTT2=
EXTT3=
EXTT4=
EXTT5=
EXTT6=
EXTT7=
EXTT8=
EXTT9=
EXTT10=
EXTT11=
EXTT12=
PLAYORDER=
